<?xml version="1.0" encoding="utf-8"?>
<!-- Generator: Adobe Illustrator 14.0.0, SVG Export Plug-In . SVG Version: 6.00 Build 43363)  -->
<!DOCTYPE svg PUBLIC "-//W3C//DTD SVG 1.1//EN" "http://www.w3.org/Graphics/SVG/1.1/DTD/svg11.dtd">
<svg version="1.1" id="Elements" xmlns="http://www.w3.org/2000/svg" xmlns:xlink="http://www.w3.org/1999/xlink" x="0px" y="0px"
	 width="299px" height="745px" viewBox="0 0 299 745" enable-background="new 0 0 299 745" xml:space="preserve">
<path fill="#597E58" d="M242.787,387.622c-3.737-3.304-7.783-4.852-11.442-4.494c0.008-0.448,0.034-0.891,0.034-1.341
	c0-1.633-0.063-3.251-0.164-4.858c-0.031-0.5,0.746-1.023,1.185-0.8c7.869,3.996,18.376,5,24.946,1.18
	c-2.151-8.219-8.479-16.005-16.094-19.784c-4.32-2.144-9.724-3.003-13.894-1.115c-0.689-2.123-1.462-4.207-2.316-6.25
	c-0.161-0.384,0.379-0.985,0.82-0.918c8.812,1.34,19.256-1.063,24.273-6.937c-4.754-7.089-13.271-12.457-21.768-13.497
	c-4.799-0.588-10.221,0.397-13.517,3.604c-1.312-1.738-2.692-3.42-4.136-5.046c-0.333-0.375-0.088-1.244,0.374-1.326
	c8.799-1.56,17.959-7.221,20.84-14.468c-6.438-4.849-15.38-7.073-23.35-5.952c-5.271,0.741-11.043,3.558-13.304,8.19
	c-1.675-1.134-3.394-2.207-5.153-3.216c-0.593-0.34-0.482-1.664,0.162-2.038c7.596-4.402,14.126-12.511,14.51-20.131
	c-7.676-2.512-16.887-1.719-24.078,1.932c-4.804,2.439-9.396,7.055-9.94,12.244c-1.879-0.507-3.783-0.949-5.712-1.324
	c-0.773-0.15-1.123-1.664-0.551-2.337c5.658-6.653,9.086-16.398,6.99-23.621c-8.01,0.093-16.341,3.839-21.936,9.535
	c-3.851,3.92-6.8,9.912-5.534,15.09c-2.146,0.137-4.269,0.357-6.366,0.656c-0.646,0.092-1.137-1.355-0.791-2.224
	c3.234-8.119,3.372-18.444-0.979-24.62c-8.007,2.858-15.294,9.731-18.425,17.664c-1.86,4.713-2.228,10.546,0.425,14.59
	c-1.895,0.787-3.756,1.638-5.578,2.558c-0.689,0.348-1.868-0.393-1.818-1.142c0.59-8.876-2.65-19.039-8.933-23.592
	c-6.646,5.348-11.286,14.269-11.62,22.821c-0.197,5.049,1.373,10.645,5.199,13.577c-1.582,1.393-3.111,2.843-4.581,4.35
	c-0.501,0.514-1.785,0.108-1.981-0.621c-2.316-8.595-8.709-17.173-16.116-19.459c-4.31,6.817-5.767,15.929-3.997,23.781
	c1.207,5.353,4.649,11.048,9.691,12.745c-1.09,1.9-2.107,3.846-3.046,5.837c-0.261,0.555-1.308,0.753-1.601,0.298
	c-4.912-7.607-13.979-13.943-21.883-13.685c-1.915,7.856-0.308,16.987,3.925,23.848c2.872,4.654,7.949,8.897,13.246,8.889
	c-0.397,2.066-0.716,4.16-0.954,6.277c-0.074,0.661-1.023,1.291-1.456,0.955c-7.129-5.545-17.745-8.515-25.053-5.706
	c0.769,7.958,5.144,15.927,11.267,21.035c4.209,3.512,10.436,5.982,15.494,4.307c0.305,2.21,0.696,4.391,1.172,6.541
	c0.118,0.531-0.915,1.096-1.578,0.881c-8.455-2.742-19.073-2.081-25.017,2.851c3.351,7.356,10.185,13.598,17.749,16.415
	c5.041,1.876,11.519,2.112,15.704-0.983c0.986,1.946,2.047,3.848,3.18,5.701c0.284,0.465-0.306,1.354-0.899,1.363
	c-8.905,0.144-18.811,4.259-22.813,10.869c5.844,6.216,15.156,10.045,23.689,9.682c4.873-0.207,10.115-2.098,12.82-5.871
	c1.491,1.453,3.037,2.848,4.635,4.184c0.455,0.381,0.235,1.491-0.334,1.702c-8.291,3.068-16.199,10.118-17.829,17.579
	c7.129,3.785,16.358,4.447,24.033,2.039c5.018-1.572,10.17-5.213,11.715-10.055c1.938,0.916,3.917,1.76,5.934,2.525
	c0.448,0.17,0.422,1.195-0.031,1.57c-6.799,5.605-11.931,14.779-11.033,22.311c7.984,1.26,16.949-1.076,23.434-5.869
	c4.19-3.096,7.838-8.154,7.79-13.189c2.111,0.229,4.248,0.371,6.404,0.434c0.461,0.014,0.794,0.912,0.514,1.369
	c-4.604,7.506-6.473,17.809-3.178,24.688c7.856-1.447,15.453-6.469,20.047-12.98c3.01-4.268,4.91-10.266,3.292-15.061
	c1.872-0.424,3.72-0.908,5.54-1.455c0.631-0.189,1.503,0.9,1.354,1.668c-1.628,8.424,0.035,18.313,5.182,23.529
	c7.487-4.119,13.515-12.221,15.262-20.596c0.959-4.598,0.479-9.896-2.228-13.449c1.737-1.082,3.433-2.225,5.08-3.428
	c0.42-0.307,1.354,0.316,1.436,0.945c1.115,8.592,5.935,17.598,12.609,20.906c5.705-6.334,8.77-15.912,7.702-24.385
	c-0.587-4.659-2.748-9.502-6.447-11.99c1.303-1.602,2.549-3.251,3.73-4.949c0.285-0.408,1.24-0.317,1.457,0.139
	c3.773,7.908,11.339,15.065,18.846,16.051c3.16-7.426,3.114-16.668,0.078-24.127c-1.939-4.764-5.861-9.488-10.666-10.761
	c0.74-2.03,1.4-4.098,1.979-6.2c0.107-0.388,0.951-0.466,1.285-0.123c6.145,6.315,15.659,10.679,23.142,9.149
	C253.476,403.512,249.017,392.943,242.787,387.622z M220.645,383.429c-0.017,0.906-1.284,1.483-1.96,1.018
	c-7.548-5.192-22.557,1.689-30.036,6.783c-0.792,0.54-0.617,2.292,0.223,2.678c7.997,3.673,21.392,7.658,28.562,1.891
	c0.848-0.682,1.774,0.247,1.461,1.583c-0.733,3.13-1.704,6.184-2.799,9.213c-0.307,0.848-1.653,0.979-2.148,0.313
	c-5.49-7.393-22.09-5.706-30.744-3.326c-0.877,0.241-1.301,1.835-0.697,2.418c6.504,6.276,18.229,14.658,27.048,11.055
	c0.854-0.35,1.338,0.611,0.736,1.592c-1.778,2.9-3.757,5.668-5.908,8.303c-0.598,0.73-2.004,0.359-2.28-0.473
	c-2.951-8.883-19.701-12.524-28.503-12.966c-0.711-0.036-1.201,1.568-0.744,2.444c4.076,7.816,12.049,18.821,21.147,18.853
	c1.144,0.004,1.768,0.994,0.885,1.731c-2.752,2.3-5.674,4.414-8.743,6.262c-0.652,0.392-1.61-0.315-1.568-1.04
	c0.55-9.42-14.092-18.412-22.461-21.877c-0.74-0.307-1.887,0.78-1.763,1.637c1.281,8.859,5.313,22.432,14.316,25.169
	c0.954,0.29,0.863,1.407-0.243,1.835c-3.192,1.236-6.498,2.279-9.84,2.982c-0.869,0.184-1.636-1.074-1.346-1.916
	c2.98-8.678-7.503-21.704-14.287-27.525c-0.624-0.536-2.056-0.138-2.193,0.563c-1.681,8.546-2.401,22.847,4.945,28.591
	c0.906,0.709,0.462,1.896-0.859,1.932c-2.608,0.073-5.221-0.002-7.818-0.229c-0.628-0.032-1.253-0.093-1.876-0.167
	c-0.933-0.109-1.446-1.432-0.92-2.08c5.801-7.152,0.036-22.759-4.364-30.578c-0.447-0.795-1.971-1.012-2.326-0.396
	c-4.507,7.793-10.017,21.553-4.161,29.32c0.51,0.677-0.044,1.383-0.954,1.104c-3.651-1.118-7.176-2.524-10.553-4.185
	c-0.593-0.293-0.445-1.387,0.146-1.731c8.181-4.776,7.668-22.082,5.948-30.875c-0.144-0.735-1.481-1.173-2.025-0.701
	c-6.538,5.668-15.547,16.109-13.751,25.073c0.23,1.15-0.675,2.029-1.614,1.325c-2.561-1.921-4.986-4.013-7.264-6.253
	c-0.62-0.609-0.458-1.928,0.195-2.073c9.041-2.016,14.06-17.921,15.366-26.832c0.132-0.901-0.809-2.062-1.391-1.829
	c-7.939,3.181-20.046,10.152-21.348,19.236c-0.156,1.088-1.439,1.349-2.131,0.316c-1.529-2.281-2.928-4.656-4.191-7.114
	c-0.487-0.948,0.23-2.467,1.025-2.436c4.693,0.183,8.884-3.458,12.021-6.811c3.716-3.97,7.971-8.659,10.615-13.655
	c0.378-0.714-0.422-2.124-1.217-2.078c-8.69,0.494-22.409,3.27-26.226,11.616c-0.341,0.746-1.254,0.822-1.475,0.039
	c-0.896-3.182-1.58-6.451-2.029-9.795c-0.099-0.737,0.71-1.591,1.229-1.354c8.468,3.873,22.34-5.745,28.747-11.995
	c0.573-0.559,0.321-1.963-0.339-2.15c-8.063-2.29-21.383-4.133-28.117,1.756c-0.806,0.705-2.038,0.241-1.961-0.859
	c0.21-3.016,0.605-5.98,1.178-8.881c0.131-0.665,1.281-0.95,1.785-0.518c7.053,6.059,23.386,1.275,31.15-2.463
	c0.554-0.267,0.585-1.476,0.068-1.839c-6.915-4.854-19.233-11.153-27.55-7.482c-0.85,0.375-1.648-0.555-1.232-1.54
	c1.147-2.717,2.459-5.348,3.921-7.881c0.358-0.621,1.583-0.592,1.922-0.022c4.69,7.9,21.364,8.808,29.984,7.768
	c0.716-0.086,1.273-1.312,0.881-1.85c-4.976-6.837-14.503-16.621-23.467-15.938c-0.941,0.072-1.599-0.868-0.979-1.572
	c2.062-2.34,4.274-4.546,6.623-6.599c0.486-0.424,1.526,0.087,1.662,0.736c1.893,9.063,17.605,15.341,26.048,17.106
	c0.628,0.131,1.435-0.827,1.245-1.442c-2.514-8.133-8.47-20.808-17.37-22.834c-0.818-0.186-0.861-1.3-0.011-1.787
	c2.646-1.513,5.398-2.863,8.243-4.034c0.624-0.257,1.409,0.853,1.343,1.645c-0.372,4.482,2.742,8.778,5.706,12.074
	c3.755,4.175,8.24,8.987,13.174,12.071c0.582,0.364,1.842-0.319,1.862-1.047c0.244-8.572-1.302-22.375-9.076-27.106
	c-0.717-0.437-0.752-1.421,0.036-1.579c3.157-0.633,6.388-1.056,9.68-1.258c0.731-0.045,1.403,0.947,1.101,1.52
	c-4.341,8.209,4.228,22.793,9.851,29.563c0.454,0.546,1.739,0.393,1.964-0.2c3.038-8.022,6.151-21.813,0.177-28.871
	c-0.579-0.684-0.347-1.684,0.475-1.579c3.375,0.429,6.678,1.089,9.89,1.972c0.713,0.196,0.8,1.477,0.263,1.999
	c-3.049,2.958-3.533,7.768-3.354,11.99c0.251,5.942,0.877,13.026,3.009,18.84c0.257,0.7,1.786,0.957,2.287,0.347
	c5.583-6.802,12.955-18.995,9.103-27.475c-0.326-0.717,0.423-1.311,1.234-0.911c3.157,1.556,6.184,3.335,9.057,5.323
	c0.544,0.376,0.641,1.348,0.179,1.503c-8.908,2.992-11.505,19.781-11.312,28.998c0.021,0.989,1.396,1.963,2.063,1.551
	c7.655-4.735,18.882-14.194,17.431-23.684c-0.107-0.701,0.819-0.825,1.478-0.167c2.562,2.556,4.928,5.306,7.079,8.225
	c0.416,0.565-0.466,1.498-1.293,1.569c-9.113,0.788-16.657,15.504-19.369,24c-0.265,0.83,0.773,2.013,1.549,1.836
	c8.823-2.016,22.522-7.309,24.173-16.821c0.136-0.781,0.995-0.854,1.393-0.053c1.052,2.118,1.999,4.297,2.844,6.526
	c0.185,0.499,1.239,3.578,1.364,3.978c0.227,0.722-0.596,1.497-1.245,1.28c-8.855-2.958-21.187,8.746-26.697,16.108
	c-0.552,0.738-0.084,2.259,0.658,2.343c8.957,1.011,23.655,0.461,28.416-7.97c0.437-0.772,1.321-0.719,1.434,0.186
	c0.372,2.994,0.564,6.01,0.585,9.03C220.666,382.105,220.657,382.767,220.645,383.429z"/>
</svg>
